<?xml version="1.0" standalone="no"?>
<!DOCTYPE svg PUBLIC "-//W3C//DTD SVG 20010904//EN"
 "http://www.w3.org/TR/2001/REC-SVG-20010904/DTD/svg10.dtd">
<svg version="1.0" xmlns="http://www.w3.org/2000/svg"
 width="41.000000pt" height="97.000000pt" viewBox="0 0 41.000000 97.000000"
 preserveAspectRatio="xMidYMid meet">

<g transform="translate(0.000000,97.000000) scale(0.100000,-0.100000)"
fill="#000000" stroke="none">
<path d="M0 915 l0 -55 55 0 c89 0 95 -11 95 -175 l0 -135 -75 0 -75 0 0 -55
0 -55 75 0 75 0 0 -145 c0 -175 -5 -185 -95 -185 l-55 0 0 -56 0 -57 73 5 c45
3 85 12 104 23 29 17 31 17 57 0 17 -12 54 -20 102 -23 l74 -5 0 57 0 56 -55
0 c-90 0 -95 10 -95 185 l0 145 75 0 75 0 0 55 0 55 -75 0 -75 0 0 135 c0 164
6 175 95 175 l55 0 0 55 0 55 -62 0 c-41 0 -75 -7 -103 -20 -41 -20 -41 -20
-80 0 -27 14 -59 20 -102 20 l-63 0 0 -55z"/>
</g>
</svg>
